%TF.GenerationSoftware,KiCad,Pcbnew,(6.0.5-0)*%
%TF.CreationDate,2022-07-24T01:31:31-06:00*%
%TF.ProjectId,esp-12-smd-to-dip,6573702d-3132-42d7-936d-642d746f2d64,rev?*%
%TF.SameCoordinates,Original*%
%TF.FileFunction,Legend,Top*%
%TF.FilePolarity,Positive*%
%FSLAX46Y46*%
G04 Gerber Fmt 4.6, Leading zero omitted, Abs format (unit mm)*
G04 Created by KiCad (PCBNEW (6.0.5-0)) date 2022-07-24 01:31:31*
%MOMM*%
%LPD*%
G01*
G04 APERTURE LIST*
%ADD10C,0.150000*%
%ADD11C,0.120000*%
G04 APERTURE END LIST*
D10*
X128397000Y-82042000D02*
X130556000Y-82042000D01*
X130556000Y-75184000D02*
X128397000Y-75184000D01*
X130556000Y-93218000D02*
X132842000Y-93218000D01*
X128397000Y-75184000D02*
X128397000Y-82042000D01*
X132842000Y-64262000D02*
X130556000Y-64262000D01*
X130556000Y-64262000D02*
X130556000Y-93218000D01*
X132712785Y-70905714D02*
X132712785Y-71572380D01*
X132474690Y-70524761D02*
X132236595Y-71239047D01*
X132855642Y-71239047D01*
X131855642Y-81732380D02*
X131284214Y-81732380D01*
X131569928Y-81732380D02*
X131569928Y-80732380D01*
X131474690Y-80875238D01*
X131379452Y-80970476D01*
X131284214Y-81018095D01*
X132236595Y-80827619D02*
X132284214Y-80780000D01*
X132379452Y-80732380D01*
X132617547Y-80732380D01*
X132712785Y-80780000D01*
X132760404Y-80827619D01*
X132808023Y-80922857D01*
X132808023Y-81018095D01*
X132760404Y-81160952D01*
X132188976Y-81732380D01*
X132808023Y-81732380D01*
X129040000Y-79740000D02*
X128992380Y-79835238D01*
X128992380Y-79978095D01*
X129040000Y-80120952D01*
X129135238Y-80216190D01*
X129230476Y-80263809D01*
X129420952Y-80311428D01*
X129563809Y-80311428D01*
X129754285Y-80263809D01*
X129849523Y-80216190D01*
X129944761Y-80120952D01*
X129992380Y-79978095D01*
X129992380Y-79882857D01*
X129944761Y-79740000D01*
X129897142Y-79692380D01*
X129563809Y-79692380D01*
X129563809Y-79882857D01*
X129992380Y-79263809D02*
X128992380Y-79263809D01*
X128992380Y-78882857D01*
X129040000Y-78787619D01*
X129087619Y-78740000D01*
X129182857Y-78692380D01*
X129325714Y-78692380D01*
X129420952Y-78740000D01*
X129468571Y-78787619D01*
X129516190Y-78882857D01*
X129516190Y-79263809D01*
X129992380Y-78263809D02*
X128992380Y-78263809D01*
X128992380Y-77597142D02*
X128992380Y-77406666D01*
X129040000Y-77311428D01*
X129135238Y-77216190D01*
X129325714Y-77168571D01*
X129659047Y-77168571D01*
X129849523Y-77216190D01*
X129944761Y-77311428D01*
X129992380Y-77406666D01*
X129992380Y-77597142D01*
X129944761Y-77692380D01*
X129849523Y-77787619D01*
X129659047Y-77835238D01*
X129325714Y-77835238D01*
X129135238Y-77787619D01*
X129040000Y-77692380D01*
X128992380Y-77597142D01*
X124351023Y-91892380D02*
X124017690Y-91416190D01*
X123779595Y-91892380D02*
X123779595Y-90892380D01*
X124160547Y-90892380D01*
X124255785Y-90940000D01*
X124303404Y-90987619D01*
X124351023Y-91082857D01*
X124351023Y-91225714D01*
X124303404Y-91320952D01*
X124255785Y-91368571D01*
X124160547Y-91416190D01*
X123779595Y-91416190D01*
X124684357Y-90892380D02*
X125351023Y-91892380D01*
X125351023Y-90892380D02*
X124684357Y-91892380D01*
X132331833Y-76652380D02*
X132522309Y-76652380D01*
X132617547Y-76604761D01*
X132665166Y-76557142D01*
X132760404Y-76414285D01*
X132808023Y-76223809D01*
X132808023Y-75842857D01*
X132760404Y-75747619D01*
X132712785Y-75700000D01*
X132617547Y-75652380D01*
X132427071Y-75652380D01*
X132331833Y-75700000D01*
X132284214Y-75747619D01*
X132236595Y-75842857D01*
X132236595Y-76080952D01*
X132284214Y-76176190D01*
X132331833Y-76223809D01*
X132427071Y-76271428D01*
X132617547Y-76271428D01*
X132712785Y-76223809D01*
X132760404Y-76176190D01*
X132808023Y-76080952D01*
X132474690Y-65492380D02*
X132569928Y-65492380D01*
X132665166Y-65540000D01*
X132712785Y-65587619D01*
X132760404Y-65682857D01*
X132808023Y-65873333D01*
X132808023Y-66111428D01*
X132760404Y-66301904D01*
X132712785Y-66397142D01*
X132665166Y-66444761D01*
X132569928Y-66492380D01*
X132474690Y-66492380D01*
X132379452Y-66444761D01*
X132331833Y-66397142D01*
X132284214Y-66301904D01*
X132236595Y-66111428D01*
X132236595Y-65873333D01*
X132284214Y-65682857D01*
X132331833Y-65587619D01*
X132379452Y-65540000D01*
X132474690Y-65492380D01*
X124351023Y-74112380D02*
X124017690Y-73636190D01*
X123779595Y-74112380D02*
X123779595Y-73112380D01*
X124160547Y-73112380D01*
X124255785Y-73160000D01*
X124303404Y-73207619D01*
X124351023Y-73302857D01*
X124351023Y-73445714D01*
X124303404Y-73540952D01*
X124255785Y-73588571D01*
X124160547Y-73636190D01*
X123779595Y-73636190D01*
X124731976Y-74064761D02*
X124874833Y-74112380D01*
X125112928Y-74112380D01*
X125208166Y-74064761D01*
X125255785Y-74017142D01*
X125303404Y-73921904D01*
X125303404Y-73826666D01*
X125255785Y-73731428D01*
X125208166Y-73683809D01*
X125112928Y-73636190D01*
X124922452Y-73588571D01*
X124827214Y-73540952D01*
X124779595Y-73493333D01*
X124731976Y-73398095D01*
X124731976Y-73302857D01*
X124779595Y-73207619D01*
X124827214Y-73160000D01*
X124922452Y-73112380D01*
X125160547Y-73112380D01*
X125303404Y-73160000D01*
X125589119Y-73112380D02*
X126160547Y-73112380D01*
X125874833Y-74112380D02*
X125874833Y-73112380D01*
X123779595Y-79192380D02*
X123779595Y-78192380D01*
X124112928Y-78906666D01*
X124446261Y-78192380D01*
X124446261Y-79192380D01*
X124922452Y-79192380D02*
X124922452Y-78192380D01*
X125351023Y-79144761D02*
X125493880Y-79192380D01*
X125731976Y-79192380D01*
X125827214Y-79144761D01*
X125874833Y-79097142D01*
X125922452Y-79001904D01*
X125922452Y-78906666D01*
X125874833Y-78811428D01*
X125827214Y-78763809D01*
X125731976Y-78716190D01*
X125541500Y-78668571D01*
X125446261Y-78620952D01*
X125398642Y-78573333D01*
X125351023Y-78478095D01*
X125351023Y-78382857D01*
X125398642Y-78287619D01*
X125446261Y-78240000D01*
X125541500Y-78192380D01*
X125779595Y-78192380D01*
X125922452Y-78240000D01*
X126541500Y-78192380D02*
X126731976Y-78192380D01*
X126827214Y-78240000D01*
X126922452Y-78335238D01*
X126970071Y-78525714D01*
X126970071Y-78859047D01*
X126922452Y-79049523D01*
X126827214Y-79144761D01*
X126731976Y-79192380D01*
X126541500Y-79192380D01*
X126446261Y-79144761D01*
X126351023Y-79049523D01*
X126303404Y-78859047D01*
X126303404Y-78525714D01*
X126351023Y-78335238D01*
X126446261Y-78240000D01*
X126541500Y-78192380D01*
X131855642Y-84272380D02*
X131284214Y-84272380D01*
X131569928Y-84272380D02*
X131569928Y-83272380D01*
X131474690Y-83415238D01*
X131379452Y-83510476D01*
X131284214Y-83558095D01*
X132188976Y-83272380D02*
X132808023Y-83272380D01*
X132474690Y-83653333D01*
X132617547Y-83653333D01*
X132712785Y-83700952D01*
X132760404Y-83748571D01*
X132808023Y-83843809D01*
X132808023Y-84081904D01*
X132760404Y-84177142D01*
X132712785Y-84224761D01*
X132617547Y-84272380D01*
X132331833Y-84272380D01*
X132236595Y-84224761D01*
X132188976Y-84177142D01*
X132760404Y-73112380D02*
X132284214Y-73112380D01*
X132236595Y-73588571D01*
X132284214Y-73540952D01*
X132379452Y-73493333D01*
X132617547Y-73493333D01*
X132712785Y-73540952D01*
X132760404Y-73588571D01*
X132808023Y-73683809D01*
X132808023Y-73921904D01*
X132760404Y-74017142D01*
X132712785Y-74064761D01*
X132617547Y-74112380D01*
X132379452Y-74112380D01*
X132284214Y-74064761D01*
X132236595Y-74017142D01*
X132236595Y-68127619D02*
X132284214Y-68080000D01*
X132379452Y-68032380D01*
X132617547Y-68032380D01*
X132712785Y-68080000D01*
X132760404Y-68127619D01*
X132808023Y-68222857D01*
X132808023Y-68318095D01*
X132760404Y-68460952D01*
X132188976Y-69032380D01*
X132808023Y-69032380D01*
X124351023Y-86717142D02*
X124303404Y-86764761D01*
X124160547Y-86812380D01*
X124065309Y-86812380D01*
X123922452Y-86764761D01*
X123827214Y-86669523D01*
X123779595Y-86574285D01*
X123731976Y-86383809D01*
X123731976Y-86240952D01*
X123779595Y-86050476D01*
X123827214Y-85955238D01*
X123922452Y-85860000D01*
X124065309Y-85812380D01*
X124160547Y-85812380D01*
X124303404Y-85860000D01*
X124351023Y-85907619D01*
X124731976Y-86764761D02*
X124874833Y-86812380D01*
X125112928Y-86812380D01*
X125208166Y-86764761D01*
X125255785Y-86717142D01*
X125303404Y-86621904D01*
X125303404Y-86526666D01*
X125255785Y-86431428D01*
X125208166Y-86383809D01*
X125112928Y-86336190D01*
X124922452Y-86288571D01*
X124827214Y-86240952D01*
X124779595Y-86193333D01*
X124731976Y-86098095D01*
X124731976Y-86002857D01*
X124779595Y-85907619D01*
X124827214Y-85860000D01*
X124922452Y-85812380D01*
X125160547Y-85812380D01*
X125303404Y-85860000D01*
X131855642Y-89352380D02*
X131284214Y-89352380D01*
X131569928Y-89352380D02*
X131569928Y-88352380D01*
X131474690Y-88495238D01*
X131379452Y-88590476D01*
X131284214Y-88638095D01*
X132760404Y-88352380D02*
X132284214Y-88352380D01*
X132236595Y-88828571D01*
X132284214Y-88780952D01*
X132379452Y-88733333D01*
X132617547Y-88733333D01*
X132712785Y-88780952D01*
X132760404Y-88828571D01*
X132808023Y-88923809D01*
X132808023Y-89161904D01*
X132760404Y-89257142D01*
X132712785Y-89304761D01*
X132617547Y-89352380D01*
X132379452Y-89352380D01*
X132284214Y-89304761D01*
X132236595Y-89257142D01*
X123779595Y-81732380D02*
X123779595Y-80732380D01*
X124112928Y-81446666D01*
X124446261Y-80732380D01*
X124446261Y-81732380D01*
X125112928Y-80732380D02*
X125303404Y-80732380D01*
X125398642Y-80780000D01*
X125493880Y-80875238D01*
X125541500Y-81065714D01*
X125541500Y-81399047D01*
X125493880Y-81589523D01*
X125398642Y-81684761D01*
X125303404Y-81732380D01*
X125112928Y-81732380D01*
X125017690Y-81684761D01*
X124922452Y-81589523D01*
X124874833Y-81399047D01*
X124874833Y-81065714D01*
X124922452Y-80875238D01*
X125017690Y-80780000D01*
X125112928Y-80732380D01*
X125922452Y-81684761D02*
X126065309Y-81732380D01*
X126303404Y-81732380D01*
X126398642Y-81684761D01*
X126446261Y-81637142D01*
X126493880Y-81541904D01*
X126493880Y-81446666D01*
X126446261Y-81351428D01*
X126398642Y-81303809D01*
X126303404Y-81256190D01*
X126112928Y-81208571D01*
X126017690Y-81160952D01*
X125970071Y-81113333D01*
X125922452Y-81018095D01*
X125922452Y-80922857D01*
X125970071Y-80827619D01*
X126017690Y-80780000D01*
X126112928Y-80732380D01*
X126351023Y-80732380D01*
X126493880Y-80780000D01*
X126922452Y-81732380D02*
X126922452Y-80732380D01*
X123636738Y-88352380D02*
X124208166Y-88352380D01*
X123922452Y-89352380D02*
X123922452Y-88352380D01*
X124446261Y-88352380D02*
X125112928Y-89352380D01*
X125112928Y-88352380D02*
X124446261Y-89352380D01*
X123636738Y-65492380D02*
X123970071Y-66492380D01*
X124303404Y-65492380D01*
X125208166Y-66397142D02*
X125160547Y-66444761D01*
X125017690Y-66492380D01*
X124922452Y-66492380D01*
X124779595Y-66444761D01*
X124684357Y-66349523D01*
X124636738Y-66254285D01*
X124589119Y-66063809D01*
X124589119Y-65920952D01*
X124636738Y-65730476D01*
X124684357Y-65635238D01*
X124779595Y-65540000D01*
X124922452Y-65492380D01*
X125017690Y-65492380D01*
X125160547Y-65540000D01*
X125208166Y-65587619D01*
X126208166Y-66397142D02*
X126160547Y-66444761D01*
X126017690Y-66492380D01*
X125922452Y-66492380D01*
X125779595Y-66444761D01*
X125684357Y-66349523D01*
X125636738Y-66254285D01*
X125589119Y-66063809D01*
X125589119Y-65920952D01*
X125636738Y-65730476D01*
X125684357Y-65635238D01*
X125779595Y-65540000D01*
X125922452Y-65492380D01*
X126017690Y-65492380D01*
X126160547Y-65540000D01*
X126208166Y-65587619D01*
X123731976Y-76366666D02*
X124208166Y-76366666D01*
X123636738Y-76652380D02*
X123970071Y-75652380D01*
X124303404Y-76652380D01*
X124636738Y-76652380D02*
X124636738Y-75652380D01*
X124874833Y-75652380D01*
X125017690Y-75700000D01*
X125112928Y-75795238D01*
X125160547Y-75890476D01*
X125208166Y-76080952D01*
X125208166Y-76223809D01*
X125160547Y-76414285D01*
X125112928Y-76509523D01*
X125017690Y-76604761D01*
X124874833Y-76652380D01*
X124636738Y-76652380D01*
X126208166Y-76557142D02*
X126160547Y-76604761D01*
X126017690Y-76652380D01*
X125922452Y-76652380D01*
X125779595Y-76604761D01*
X125684357Y-76509523D01*
X125636738Y-76414285D01*
X125589119Y-76223809D01*
X125589119Y-76080952D01*
X125636738Y-75890476D01*
X125684357Y-75795238D01*
X125779595Y-75700000D01*
X125922452Y-75652380D01*
X126017690Y-75652380D01*
X126160547Y-75700000D01*
X126208166Y-75747619D01*
X124303404Y-68080000D02*
X124208166Y-68032380D01*
X124065309Y-68032380D01*
X123922452Y-68080000D01*
X123827214Y-68175238D01*
X123779595Y-68270476D01*
X123731976Y-68460952D01*
X123731976Y-68603809D01*
X123779595Y-68794285D01*
X123827214Y-68889523D01*
X123922452Y-68984761D01*
X124065309Y-69032380D01*
X124160547Y-69032380D01*
X124303404Y-68984761D01*
X124351023Y-68937142D01*
X124351023Y-68603809D01*
X124160547Y-68603809D01*
X124779595Y-69032380D02*
X124779595Y-68032380D01*
X125351023Y-69032380D01*
X125351023Y-68032380D01*
X125827214Y-69032380D02*
X125827214Y-68032380D01*
X126065309Y-68032380D01*
X126208166Y-68080000D01*
X126303404Y-68175238D01*
X126351023Y-68270476D01*
X126398642Y-68460952D01*
X126398642Y-68603809D01*
X126351023Y-68794285D01*
X126303404Y-68889523D01*
X126208166Y-68984761D01*
X126065309Y-69032380D01*
X125827214Y-69032380D01*
X124351023Y-84177142D02*
X124303404Y-84224761D01*
X124160547Y-84272380D01*
X124065309Y-84272380D01*
X123922452Y-84224761D01*
X123827214Y-84129523D01*
X123779595Y-84034285D01*
X123731976Y-83843809D01*
X123731976Y-83700952D01*
X123779595Y-83510476D01*
X123827214Y-83415238D01*
X123922452Y-83320000D01*
X124065309Y-83272380D01*
X124160547Y-83272380D01*
X124303404Y-83320000D01*
X124351023Y-83367619D01*
X125255785Y-84272380D02*
X124779595Y-84272380D01*
X124779595Y-83272380D01*
X125589119Y-84272380D02*
X125589119Y-83272380D01*
X126160547Y-84272380D02*
X125731976Y-83700952D01*
X126160547Y-83272380D02*
X125589119Y-83843809D01*
X123779595Y-71048571D02*
X124112928Y-71048571D01*
X124255785Y-71572380D02*
X123779595Y-71572380D01*
X123779595Y-70572380D01*
X124255785Y-70572380D01*
X124684357Y-71572380D02*
X124684357Y-70572380D01*
X125255785Y-71572380D01*
X125255785Y-70572380D01*
X131855642Y-86812380D02*
X131284214Y-86812380D01*
X131569928Y-86812380D02*
X131569928Y-85812380D01*
X131474690Y-85955238D01*
X131379452Y-86050476D01*
X131284214Y-86098095D01*
X132712785Y-86145714D02*
X132712785Y-86812380D01*
X132474690Y-85764761D02*
X132236595Y-86479047D01*
X132855642Y-86479047D01*
X131855642Y-79192380D02*
X131284214Y-79192380D01*
X131569928Y-79192380D02*
X131569928Y-78192380D01*
X131474690Y-78335238D01*
X131379452Y-78430476D01*
X131284214Y-78478095D01*
X132474690Y-78192380D02*
X132569928Y-78192380D01*
X132665166Y-78240000D01*
X132712785Y-78287619D01*
X132760404Y-78382857D01*
X132808023Y-78573333D01*
X132808023Y-78811428D01*
X132760404Y-79001904D01*
X132712785Y-79097142D01*
X132665166Y-79144761D01*
X132569928Y-79192380D01*
X132474690Y-79192380D01*
X132379452Y-79144761D01*
X132331833Y-79097142D01*
X132284214Y-79001904D01*
X132236595Y-78811428D01*
X132236595Y-78573333D01*
X132284214Y-78382857D01*
X132331833Y-78287619D01*
X132379452Y-78240000D01*
X132474690Y-78192380D01*
X131855642Y-91892380D02*
X131284214Y-91892380D01*
X131569928Y-91892380D02*
X131569928Y-90892380D01*
X131474690Y-91035238D01*
X131379452Y-91130476D01*
X131284214Y-91178095D01*
X132712785Y-90892380D02*
X132522309Y-90892380D01*
X132427071Y-90940000D01*
X132379452Y-90987619D01*
X132284214Y-91130476D01*
X132236595Y-91320952D01*
X132236595Y-91701904D01*
X132284214Y-91797142D01*
X132331833Y-91844761D01*
X132427071Y-91892380D01*
X132617547Y-91892380D01*
X132712785Y-91844761D01*
X132760404Y-91797142D01*
X132808023Y-91701904D01*
X132808023Y-91463809D01*
X132760404Y-91368571D01*
X132712785Y-91320952D01*
X132617547Y-91273333D01*
X132427071Y-91273333D01*
X132331833Y-91320952D01*
X132284214Y-91368571D01*
X132236595Y-91463809D01*
D11*
%TO.C,U1*%
X112652000Y-46617000D02*
X120272000Y-46617000D01*
X136272000Y-46617000D02*
X136892000Y-46617000D01*
X136892000Y-62857000D02*
X136272000Y-62857000D01*
X120272000Y-62857000D02*
X112652000Y-62857000D01*
X112652000Y-62857000D02*
X112652000Y-46617000D01*
X136892000Y-60737000D02*
X136892000Y-62857000D01*
X120272000Y-62857000D02*
X120272000Y-63467000D01*
X136892000Y-46617000D02*
X136892000Y-48737000D01*
%TD*%
M02*
