M48
; DRILL file {KiCad (6.0.5-0)} date 2022 July 24, Sunday 01:31:36
; FORMAT={-:-/ absolute / inch / decimal}
; #@! TF.CreationDate,2022-07-24T01:31:36-06:00
; #@! TF.GenerationSoftware,Kicad,Pcbnew,(6.0.5-0)
; #@! TF.FileFunction,Plated,1,2,PTH
FMAT,2
INCH
; #@! TA.AperFunction,Plated,PTH,ViaDrill
T1C0.0157
; #@! TA.AperFunction,Plated,PTH,ComponentDrill
T2C0.0394
%
G90
G05
T1
X4.81Y-2.19
X4.92Y-2.36
X4.94Y-2.55
X4.97Y-2.19
X5.04Y-2.3
X5.04Y-2.34
X5.05Y-3.35
X5.07Y-2.25
X5.1Y-2.22
X5.1102Y-3.2548
X5.13Y-2.19
X5.15Y-3.2
X5.17Y-2.62
X5.18Y-2.3
X5.18Y-2.34
X5.2Y-2.8
X5.2Y-3.15
X5.2Y-3.25
X5.2Y-3.35
X5.2385Y-1.94
X5.24Y-2.3
X5.24Y-2.34
X5.25Y-2.65
X5.2656Y-2.11
X5.275Y-1.985
X5.285Y-2.235
X5.285Y-2.385
X5.305Y-2.11
X5.31Y-1.95
X5.38Y-1.86
T2
X4.8Y-2.6
X4.8Y-2.7
X4.8Y-2.8
X4.8Y-2.9
X4.8Y-3.0
X4.8Y-3.1
X4.8Y-3.2
X4.8Y-3.3
X4.8Y-3.4
X4.8Y-3.5
X4.8Y-3.6
X5.3Y-2.6
X5.3Y-2.7
X5.3Y-2.8
X5.3Y-2.9
X5.3Y-3.0
X5.3Y-3.1
X5.3Y-3.2
X5.3Y-3.3
X5.3Y-3.4
X5.3Y-3.5
X5.3Y-3.6
T0
M30
