%TF.GenerationSoftware,KiCad,Pcbnew,(6.0.5-0)*%
%TF.CreationDate,2022-07-24T01:31:31-06:00*%
%TF.ProjectId,esp-12-smd-to-dip,6573702d-3132-42d7-936d-642d746f2d64,rev?*%
%TF.SameCoordinates,Original*%
%TF.FileFunction,Copper,L2,Bot*%
%TF.FilePolarity,Positive*%
%FSLAX46Y46*%
G04 Gerber Fmt 4.6, Leading zero omitted, Abs format (unit mm)*
G04 Created by KiCad (PCBNEW (6.0.5-0)) date 2022-07-24 01:31:31*
%MOMM*%
%LPD*%
G01*
G04 APERTURE LIST*
%TA.AperFunction,ComponentPad*%
%ADD10C,1.700000*%
%TD*%
%TA.AperFunction,ComponentPad*%
%ADD11O,1.700000X1.700000*%
%TD*%
%TA.AperFunction,ViaPad*%
%ADD12C,0.800000*%
%TD*%
%TA.AperFunction,Conductor*%
%ADD13C,0.250000*%
%TD*%
G04 APERTURE END LIST*
D10*
%TO.P,J1,1,Pin_1*%
%TO.N,vcc*%
X121920000Y-66040000D03*
D11*
%TO.P,J1,2,Pin_2*%
%TO.N,gnd*%
X121920000Y-68580000D03*
%TO.P,J1,3,Pin_3*%
%TO.N,en*%
X121920000Y-71120000D03*
%TO.P,J1,4,Pin_4*%
%TO.N,rst*%
X121920000Y-73660000D03*
%TO.P,J1,5,Pin_5*%
%TO.N,adc*%
X121920000Y-76200000D03*
%TO.P,J1,6,Pin_6*%
%TO.N,miso*%
X121920000Y-78740000D03*
%TO.P,J1,7,Pin_7*%
%TO.N,mosi*%
X121920000Y-81280000D03*
%TO.P,J1,8,Pin_8*%
%TO.N,sclk*%
X121920000Y-83820000D03*
%TO.P,J1,9,Pin_9*%
%TO.N,cs*%
X121920000Y-86360000D03*
%TO.P,J1,10,Pin_10*%
%TO.N,tx*%
X121920000Y-88900000D03*
D10*
%TO.P,J1,11,Pin_11*%
%TO.N,rx*%
X121920000Y-91440000D03*
%TD*%
%TO.P,J2,1,Pin_1*%
%TO.N,gpio16*%
X134620000Y-91440000D03*
D11*
%TO.P,J2,2,Pin_2*%
%TO.N,gpio15*%
X134620000Y-88900000D03*
%TO.P,J2,3,Pin_3*%
%TO.N,gpio14*%
X134620000Y-86360000D03*
%TO.P,J2,4,Pin_4*%
%TO.N,gpio13*%
X134620000Y-83820000D03*
%TO.P,J2,5,Pin_5*%
%TO.N,gpio12*%
X134620000Y-81280000D03*
%TO.P,J2,6,Pin_6*%
%TO.N,gpio10*%
X134620000Y-78740000D03*
%TO.P,J2,7,Pin_7*%
%TO.N,gpio9*%
X134620000Y-76200000D03*
%TO.P,J2,8,Pin_8*%
%TO.N,gpio5*%
X134620000Y-73660000D03*
%TO.P,J2,9,Pin_9*%
%TO.N,gpio4*%
X134620000Y-71120000D03*
%TO.P,J2,10,Pin_10*%
%TO.N,gpio2*%
X134620000Y-68580000D03*
%TO.P,J2,11,Pin_11*%
%TO.N,gpio0*%
X134620000Y-66040000D03*
%TD*%
D12*
%TO.N,cs*%
X131572000Y-59436000D03*
X128016000Y-59436000D03*
X133096000Y-59436000D03*
%TO.N,gnd*%
X136652000Y-47244000D03*
%TO.N,en*%
X125476000Y-64770000D03*
%TO.N,miso*%
X124968000Y-59944000D03*
X131572000Y-58420000D03*
X122174000Y-55626000D03*
X128016000Y-58420000D03*
X126238000Y-55626000D03*
X133096000Y-58420000D03*
%TO.N,mosi*%
X133984992Y-50418992D03*
%TO.N,sclk*%
X134874000Y-49530000D03*
%TO.N,gpio0*%
X132080000Y-80010000D03*
X132080000Y-82550000D03*
X132080000Y-85090000D03*
X128270000Y-85090000D03*
X132080000Y-71120000D03*
%TO.N,gpio5*%
X133350000Y-67310000D03*
%TO.N,gpio9*%
X131318000Y-66548000D03*
%TO.N,gpio10*%
X134747000Y-53594000D03*
%TO.N,gpio16*%
X129540000Y-56388000D03*
X129798299Y-82672701D03*
%TO.N,gpio12*%
X133747497Y-53594000D03*
%TO.N,gpio14*%
X128778000Y-57150000D03*
%TO.N,gpio15*%
X130302000Y-55626000D03*
X130810000Y-81280000D03*
%TO.N,vcc*%
X133058500Y-49276000D03*
X134239000Y-56769000D03*
X134239000Y-60579000D03*
%TD*%
D13*
%TO.N,cs*%
X128270000Y-59690000D02*
X128270000Y-80010000D01*
X131572000Y-59436000D02*
X133096000Y-59436000D01*
X128016000Y-59436000D02*
X128270000Y-59690000D01*
X128270000Y-80010000D02*
X121920000Y-86360000D01*
%TO.N,gnd*%
X123094511Y-60284875D02*
X123094511Y-67405489D01*
X136135386Y-47244000D02*
X123094511Y-60284875D01*
X123094511Y-67405489D02*
X121920000Y-68580000D01*
X136652000Y-47244000D02*
X136135386Y-47244000D01*
%TO.N,en*%
X125476000Y-64770000D02*
X125476000Y-67564000D01*
X125476000Y-67564000D02*
X121920000Y-71120000D01*
%TO.N,miso*%
X126238000Y-55626000D02*
X122174000Y-55626000D01*
X133096000Y-58420000D02*
X131572000Y-58420000D01*
X124968000Y-59944000D02*
X126200511Y-61176511D01*
X126200511Y-61176511D02*
X126200511Y-74459489D01*
X126200511Y-74459489D02*
X121920000Y-78740000D01*
%TO.N,mosi*%
X133596112Y-50418992D02*
X126746000Y-57269104D01*
X133984992Y-50418992D02*
X133596112Y-50418992D01*
X126746000Y-57269104D02*
X126746000Y-76454000D01*
X126746000Y-76454000D02*
X121920000Y-81280000D01*
%TO.N,sclk*%
X134709503Y-50118889D02*
X134709503Y-50719095D01*
X127195520Y-57455302D02*
X127195520Y-78544480D01*
X133507319Y-51143503D02*
X127195520Y-57455302D01*
X134497307Y-49906693D02*
X134709503Y-50118889D01*
X134285095Y-51143503D02*
X133507319Y-51143503D01*
X127195520Y-78544480D02*
X121920000Y-83820000D01*
X134874000Y-49530000D02*
X134497307Y-49906693D01*
X134709503Y-50719095D02*
X134285095Y-51143503D01*
%TO.N,gpio0*%
X132080000Y-67310000D02*
X133350000Y-66040000D01*
X132080000Y-71120000D02*
X132080000Y-67310000D01*
X128270000Y-85090000D02*
X132080000Y-85090000D01*
X132080000Y-82550000D02*
X132080000Y-80010000D01*
X133350000Y-66040000D02*
X134620000Y-66040000D01*
%TO.N,gpio5*%
X133350000Y-72390000D02*
X134620000Y-73660000D01*
X133350000Y-67310000D02*
X133350000Y-72390000D01*
%TO.N,gpio9*%
X131318000Y-72898000D02*
X134620000Y-76200000D01*
X131318000Y-66548000D02*
X131318000Y-72898000D01*
%TO.N,gpio10*%
X134747000Y-53594000D02*
X134747000Y-54112767D01*
X130576080Y-58283687D02*
X130576080Y-74696080D01*
X134747000Y-54112767D02*
X130576080Y-58283687D01*
X130576080Y-74696080D02*
X134620000Y-78740000D01*
%TO.N,gpio16*%
X129798299Y-82672701D02*
X129227520Y-82101922D01*
X129227520Y-82101922D02*
X129227520Y-57725094D01*
X129227520Y-57725094D02*
X129540000Y-57412614D01*
X129540000Y-57412614D02*
X129540000Y-56388000D01*
%TO.N,gpio12*%
X130126560Y-58097489D02*
X130126560Y-76786560D01*
X133747497Y-53594000D02*
X133747497Y-54476552D01*
X133747497Y-54476552D02*
X130126560Y-58097489D01*
X130126560Y-76786560D02*
X134620000Y-81280000D01*
%TO.N,gpio14*%
X128778000Y-57150000D02*
X128778000Y-82677000D01*
X130466489Y-84365489D02*
X132625489Y-84365489D01*
X128778000Y-82677000D02*
X130466489Y-84365489D01*
X132625489Y-84365489D02*
X134620000Y-86360000D01*
%TO.N,gpio15*%
X130810000Y-80255386D02*
X130810000Y-81280000D01*
X130302000Y-55626000D02*
X130310614Y-55626000D01*
X130310614Y-55626000D02*
X130518511Y-55833897D01*
X130518511Y-57069820D02*
X129677040Y-57911291D01*
X129677040Y-79122426D02*
X130810000Y-80255386D01*
X129677040Y-57911291D02*
X129677040Y-79122426D01*
X130518511Y-55833897D02*
X130518511Y-57069820D01*
%TO.N,vcc*%
X121285000Y-55490386D02*
X127499386Y-49276000D01*
X121920000Y-66040000D02*
X121920000Y-58293000D01*
X127499386Y-49276000D02*
X133058500Y-49276000D01*
X121920000Y-58293000D02*
X121285000Y-57658000D01*
X121285000Y-57658000D02*
X121285000Y-55490386D01*
X134239000Y-56769000D02*
X134239000Y-60579000D01*
%TD*%
M02*
